<svg xmlns="http://www.w3.org/2000/svg" viewBox="0 0 64 64">
<path d="M32 3L57 11L57 30C57 45 46 55 32 61C18 55 7 45 7 30L7 11Z" fill="#E8672A" stroke="#FFFFFF" stroke-width="3" stroke-linejoin="round"/>
<path d="M16 16L25 24L39 24L48 16L47 33L32 50L17 33Z" fill="#FFFFFF"/>
<path d="M19 21L23 25L19 29Z M45 21L41 25L45 29Z" fill="#E8672A"/>
<path d="M22 33L32 44L42 33L32 38Z" fill="#F6D9C8"/>
<circle cx="26" cy="31" r="2.2" fill="#3A1A0C"/>
<circle cx="38" cy="31" r="2.2" fill="#3A1A0C"/>
<path d="M29 45L35 45L32 49Z" fill="#3A1A0C"/>
</svg>
